# xmcd
#
# Track frame offsets:
# 150
# 17950
# 30679
# 56956
# 69680
# 91057
# 109309
# 134111
# 149231
# 170330
# 194997
# 217027
# 239717
# 259758
#
# Disc length: 3834 seconds
#
# Revision: 1
# Processed by: cddbd v1.5.2PL0 Copyright (c) Steve Scherf et al.
# Submitted via: CedeCatalogueitor 2.6.0.6 http://personales.ya.com/cdcatalogueitor
#
DISCID=f00ef80e
DTITLE=Boyz II Men - Legacy The Greatest Hits Collection
DYEAR=2001
DGENRE=
TTITLE0=Motownphilly
TTITLE1=It´s So Hard To Say Goodbay To Yesterday
TTITLE2=End Of The Road
TTITLE3=In The Still Of The Nite (i´ll Remember)
TTITLE4=Hey Lover (W/ LL Cool J)
TTITLE5=I´ll Make Love To You
TTITLE6=On Bended Knee
TTITLE7=Water Runs Dry
TTITLE8=One Sweet Day (W/ Mariah Carey)
TTITLE9=Doin´ Just Fine
TTITLE10=Seasons Of Loneliness
TTITLE11=A Song For Mama
TTITLE12=Pass You By
TTITLE13=Rose And A Honeycombthank You
EXTD=
EXTT0=
EXTT1=
EXTT2=
EXTT3=
EXTT4=
EXTT5=
EXTT6=
EXTT7=
EXTT8=
EXTT9=
EXTT10=
EXTT11=
EXTT12=
EXTT13=
PLAYORDER=
